<?xml version="1.0" encoding="UTF-8"?>
<svg xmlns="http://www.w3.org/2000/svg" xmlns:xlink="http://www.w3.org/1999/xlink" width="50px" height="50px" viewBox="0 0 50 50" version="1.1">
<g id="surface1">
<path style=" stroke:none;fill-rule:evenodd;fill:rgb(87.843137%,16.078431%,18.431373%);fill-opacity:1;" d="M 0 49.757812 L 49.953125 49.757812 L 49.953125 0 L 0 0 Z M 0 49.757812 "/>
<path style=" stroke:none;fill-rule:evenodd;fill:rgb(99.607843%,99.607843%,99.607843%);fill-opacity:1;" d="M 13.695312 21.527344 L 20.066406 21.527344 C 20.066406 20.589844 20.140625 19.644531 20.300781 18.703125 C 20.484375 17.730469 20.777344 16.859375 21.1875 16.085938 C 21.597656 15.285156 22.125 14.640625 22.777344 14.175781 C 23.46875 13.671875 24.289062 13.417969 25.257812 13.417969 C 26.695312 13.417969 27.867188 13.90625 28.769531 14.886719 C 29.699219 15.816406 30.175781 17.144531 30.175781 18.855469 C 30.175781 19.933594 29.933594 20.886719 29.46875 21.726562 C 29.03125 22.566406 28.476562 23.320312 27.789062 23.996094 C 27.132812 24.664062 26.394531 25.285156 25.589844 25.863281 C 24.777344 26.394531 24.011719 26.929688 23.289062 27.46875 C 21.890625 28.511719 20.546875 29.53125 19.269531 30.539062 C 18.023438 31.546875 16.929688 32.65625 15.988281 33.859375 C 15.058594 35.039062 14.304688 36.378906 13.746094 37.894531 C 13.214844 39.402344 12.945312 41.183594 12.945312 43.234375 L 37.011719 43.234375 L 37.011719 37.082031 L 21.511719 37.082031 C 22.332031 35.882812 23.261719 34.820312 24.328125 33.910156 C 25.382812 33.007812 26.480469 32.167969 27.601562 31.394531 C 28.714844 30.59375 29.828125 29.785156 30.921875 28.980469 C 32.046875 28.171875 33.046875 27.277344 33.921875 26.304688 C 34.789062 25.304688 35.496094 24.160156 36.027344 22.886719 C 36.558594 21.609375 36.820312 20.082031 36.820312 18.300781 C 36.820312 16.589844 36.507812 15.046875 35.886719 13.671875 C 35.296875 12.292969 34.480469 11.140625 33.449219 10.191406 C 32.421875 9.261719 31.222656 8.535156 29.84375 8.03125 C 28.507812 7.527344 27.082031 7.273438 25.589844 7.273438 C 23.621094 7.273438 21.875 7.644531 20.34375 8.386719 C 18.84375 9.089844 17.601562 10.09375 16.597656 11.40625 C 15.597656 12.679688 14.855469 14.1875 14.351562 15.9375 C 13.851562 17.652344 13.632812 19.511719 13.695312 21.527344 "/>
</g>
</svg>
