<?xml version="1.0" encoding="UTF-8"?>
<svg xmlns="http://www.w3.org/2000/svg" xmlns:xlink="http://www.w3.org/1999/xlink" width="50px" height="50px" viewBox="0 0 50 50" version="1.1">
<g id="surface1">
<path style=" stroke:none;fill-rule:evenodd;fill:rgb(92.156863%,65.098039%,78.823529%);fill-opacity:1;" d="M 0 49.992188 L 49.953125 49.992188 L 49.953125 0 L 0 0 Z M 0 49.992188 "/>
<path style=" stroke:none;fill-rule:evenodd;fill:rgb(99.607843%,99.607843%,99.607843%);fill-opacity:1;" d="M 21.8125 20.109375 C 22.570312 20.960938 23.632812 21.382812 24.992188 21.382812 C 26.363281 21.382812 27.425781 20.960938 28.179688 20.109375 C 28.921875 19.257812 29.304688 18.164062 29.304688 16.816406 C 29.304688 15.367188 28.921875 14.214844 28.179688 13.394531 C 27.425781 12.570312 26.363281 12.160156 24.992188 12.160156 C 23.632812 12.160156 22.570312 12.570312 21.8125 13.394531 C 21.046875 14.214844 20.664062 15.367188 20.664062 16.816406 C 20.664062 18.164062 21.046875 19.257812 21.8125 20.109375 M 21.390625 36.9375 C 22.257812 37.933594 23.460938 38.433594 25.003906 38.433594 C 26.546875 38.433594 27.746094 37.933594 28.628906 36.9375 C 29.5 35.929688 29.933594 34.523438 29.933594 32.699219 C 29.933594 30.816406 29.488281 29.386719 28.609375 28.40625 C 27.71875 27.4375 26.515625 26.941406 25.003906 26.941406 C 23.503906 26.941406 22.300781 27.4375 21.40625 28.40625 C 20.527344 29.386719 20.082031 30.816406 20.082031 32.699219 C 20.082031 34.523438 20.515625 35.929688 21.390625 36.9375 M 14.386719 27.550781 C 15.265625 25.871094 16.527344 24.605469 18.207031 23.757812 C 16.546875 22.5625 15.464844 21.28125 14.976562 19.890625 C 14.476562 18.507812 14.234375 17.210938 14.234375 16.003906 C 14.234375 13.316406 15.164062 11.023438 17.035156 9.136719 C 18.910156 7.242188 21.558594 6.296875 24.980469 6.296875 C 28.402344 6.296875 31.046875 7.242188 32.921875 9.136719 C 34.800781 11.023438 35.742188 13.316406 35.742188 16.003906 C 35.742188 17.210938 35.492188 18.507812 34.996094 19.890625 C 34.496094 21.28125 33.429688 22.484375 31.773438 23.507812 C 33.46875 24.523438 34.730469 25.871094 35.59375 27.550781 C 36.445312 29.234375 36.867188 31.109375 36.867188 33.195312 C 36.867188 36.296875 35.792969 38.945312 33.675781 41.128906 C 31.539062 43.3125 28.558594 44.410156 24.738281 44.410156 C 20.902344 44.410156 18.011719 43.3125 16.042969 41.128906 C 14.070312 38.945312 13.089844 36.296875 13.089844 33.195312 C 13.089844 31.109375 13.53125 29.234375 14.386719 27.550781 "/>
</g>
</svg>
